<?xml version="1.0" encoding="UTF-8"?>
<svg id="Layer_1" xmlns="http://www.w3.org/2000/svg" version="1.1" viewBox="0 0 612 792">
  <!-- Generator: Adobe Illustrator 29.3.1, SVG Export Plug-In . SVG Version: 2.1.0 Build 151)  -->
  <defs>
    <style>
      .st0 {
        fill: #194786;
      }

      .st1 {
        fill: #ef4723;
      }
    </style>
  </defs>
  <path class="st0" d="M87.6,354.9H11.7v-37.6l63.3-153h63.6v151.2h21.2v39.4h-21.2v51.4h-51.1v-51.4ZM87.6,315.5v-98l-35.8,98h35.8Z"/>
  <path class="st0" d="M520,354.9h-75.9v-37.6l63.3-153h63.6v151.2h21.2v39.4h-21.2v51.4h-51.1v-51.4ZM520,315.5v-98l-35.8,98h35.8Z"/>
  <circle class="st1" cx="303" cy="279" r="121.6"/>
  <g>
    <path class="st0" d="M220.6,254.2l1.7-.4c0,1.6.4,2.7,1.2,2.7s.9-.5.9-1.3c0-1.2-.5-1.8-1.2-2.6l-1.3-1.5c-.8-.8-1.2-1.8-1.2-3.3,0-2.2,1-3.4,2.7-3.4s2.5,1.7,2.6,3.7l-1.7.4c0-1.3-.2-2.2-1-2.2s-.9.6-.9,1.3.3,1.4.9,2l1.3,1.5c.9,1,1.6,2.2,1.6,3.9s-1.1,3.3-2.6,3.3-2.8-1.4-2.9-4.1Z"/>
    <path class="st0" d="M227,254.9v-3.3c0-2.2.8-3.4,2.4-3.4s2.4,1.2,2.4,3.4v3.3c0,2.2-.8,3.4-2.4,3.4s-2.4-1.2-2.4-3.4ZM230.1,255.1v-3.6c0-.9,0-1.6-.7-1.6s-.7.7-.7,1.6v3.6c0,.9,0,1.6.7,1.6s.7-.7.7-1.6Z"/>
    <path class="st0" d="M233.1,248.5h1.7v.9c.5-.7,1.1-1,1.8-1s1.1.4,1.3,1.2c.6-.8,1.2-1.2,1.9-1.2s1.4.8,1.4,2.3v7.6h-1.7v-7.4c0-.7-.2-1-.5-1s-.6.2-.9.6v7.8h-1.7v-7.4c0-.7-.2-1-.6-1s-.6.2-.9.6v7.8h-1.7v-9.7Z"/>
    <path class="st0" d="M242.3,254.8v-2.9c0-2.3.8-3.6,2.4-3.6s2.3,1.3,2.3,3.7v1.4h-3v1.9c0,1,.2,1.3.7,1.3s.6-.4.6-1.3v-.8h1.7v.7c0,2-.8,3.1-2.3,3.1s-2.4-1.3-2.4-3.6ZM245.4,252.3v-.9c0-1-.2-1.4-.7-1.4s-.7.4-.7,1.7v.7h1.3Z"/>
    <path class="st0" d="M248.1,254.9v-3.3c0-2.2.8-3.4,2.4-3.4s2.4,1.2,2.4,3.4v3.3c0,2.2-.8,3.4-2.4,3.4s-2.4-1.2-2.4-3.4ZM251.2,255.1v-3.6c0-.9,0-1.6-.7-1.6s-.7.7-.7,1.6v3.6c0,.9,0,1.6.7,1.6s.7-.7.7-1.6Z"/>
    <path class="st0" d="M254.2,248.5h1.8v1c.5-.7,1.1-1.1,1.8-1.1s1.3,1,1.3,2.1v7.7h-1.8v-7.3c0-.6-.1-.9-.5-.9s-.5.2-.8.5v7.7h-1.8v-9.7Z"/>
    <path class="st0" d="M260.2,254.8v-2.9c0-2.3.8-3.6,2.4-3.6s2.3,1.3,2.3,3.7v1.4h-3v1.9c0,1,.2,1.3.7,1.3s.6-.4.6-1.3v-.8h1.7v.7c0,2-.8,3.1-2.3,3.1s-2.4-1.3-2.4-3.6ZM263.3,252.3v-.9c0-1-.2-1.4-.7-1.4s-.7.4-.7,1.7v.7h1.3Z"/>
    <path class="st0" d="M269.2,254.9v-3.3c0-2.2.8-3.4,2.4-3.4s2.4,1.2,2.4,3.4v3.3c0,2.2-.8,3.4-2.4,3.4s-2.4-1.2-2.4-3.4ZM272.3,255.1v-3.6c0-.9,0-1.6-.7-1.6s-.7.7-.7,1.6v3.6c0,.9,0,1.6.7,1.6s.7-.7.7-1.6Z"/>
    <path class="st0" d="M275.2,248.5h1.8v1c.5-.7,1.1-1.1,1.8-1.1s1.3,1,1.3,2.1v7.7h-1.8v-7.3c0-.6-.1-.9-.5-.9s-.5.2-.8.5v7.7h-1.8v-9.7Z"/>
    <path class="st0" d="M281.3,254.8v-2.9c0-2.2.7-3.5,2.4-3.5s2.3,1,2.3,3v.8h-1.7v-.9c0-1-.2-1.3-.6-1.3s-.7.4-.7,1.6v3.6c0,1.2.2,1.6.7,1.6s.6-.5.6-1.3v-1h1.7v.9c0,2-.7,3-2.3,3s-2.4-1.4-2.4-3.5Z"/>
    <path class="st0" d="M287,254.8v-2.9c0-2.3.8-3.6,2.4-3.6s2.3,1.3,2.3,3.7v1.4h-3v1.9c0,1,.2,1.3.7,1.3s.6-.4.6-1.3v-.8h1.7v.7c0,2-.8,3.1-2.3,3.1s-2.4-1.3-2.4-3.6ZM290.1,252.3v-.9c0-1-.2-1.4-.7-1.4s-.7.4-.7,1.7v.7h1.3Z"/>
    <path class="st0" d="M296.4,255.7v-5.8h-.8v-1.5h.8v-2.9h1.8v2.9h1.1v1.5h-1.1v5.6c0,.7.2.9.7.9s.4,0,.5,0v1.8c-.3,0-.7.1-1.1.1-1.4,0-1.9-1-1.9-2.5Z"/>
    <path class="st0" d="M300.3,254.9v-3.3c0-2.2.8-3.4,2.4-3.4s2.4,1.2,2.4,3.4v3.3c0,2.2-.8,3.4-2.4,3.4s-2.4-1.2-2.4-3.4ZM303.4,255.1v-3.6c0-.9,0-1.6-.7-1.6s-.7.7-.7,1.6v3.6c0,.9,0,1.6.7,1.6s.7-.7.7-1.6Z"/>
    <path class="st0" d="M306.5,244.6h1.8v13.6h-1.8v-13.6Z"/>
    <path class="st0" d="M309.5,254.9v-3c0-2,.4-3.6,1.8-3.6s1,.3,1.4.8v-4.5h1.8v13.6h-1.8v-.7c-.4.5-.8.8-1.3.8-1.2,0-1.8-1-1.8-3.5ZM312.7,256.4v-6.2c-.2-.2-.4-.3-.7-.3-.5,0-.7.7-.7,1.5v3.6c0,1,.1,1.7.7,1.7s.5-.1.7-.3Z"/>
    <path class="st0" d="M319,248.5h1.7v.9c.5-.7,1.1-1,1.8-1s1.1.4,1.3,1.2c.6-.8,1.2-1.2,1.9-1.2s1.4.8,1.4,2.3v7.6h-1.7v-7.4c0-.7-.2-1-.5-1s-.6.2-.9.6v7.8h-1.7v-7.4c0-.7-.2-1-.6-1s-.6.2-.9.6v7.8h-1.7v-9.7Z"/>
    <path class="st0" d="M328.2,254.8v-2.9c0-2.3.8-3.6,2.4-3.6s2.3,1.3,2.3,3.7v1.4h-3v1.9c0,1,.2,1.3.7,1.3s.6-.4.6-1.3v-.8h1.7v.7c0,2-.8,3.1-2.3,3.1s-2.4-1.3-2.4-3.6ZM331.3,252.3v-.9c0-1-.2-1.4-.7-1.4s-.7.4-.7,1.7v.7h1.3Z"/>
    <path class="st0" d="M334.1,259.6c.5-.2.8-.6.8-1.4h-.9v-2.3h1.7v2.1c0,1.4-.5,2.2-1.5,2.5l-.2-.8Z"/>
    <path class="st0" d="M340.4,255.7v-5.8h-.8v-1.5h.8v-2.9h1.8v2.9h1.1v1.5h-1.1v5.6c0,.7.2.9.7.9s.4,0,.5,0v1.8c-.3,0-.7.1-1.1.1-1.4,0-1.9-1-1.9-2.5Z"/>
    <path class="st0" d="M344.5,245h1.8v1.9h-1.8v-1.9ZM344.5,248.5h1.8v9.7h-1.8v-9.7Z"/>
    <path class="st0" d="M347.6,248.5h1.7v.9c.5-.7,1.1-1,1.8-1s1.1.4,1.3,1.2c.6-.8,1.2-1.2,1.9-1.2s1.4.8,1.4,2.3v7.6h-1.7v-7.4c0-.7-.2-1-.5-1s-.6.2-.9.6v7.8h-1.7v-7.4c0-.7-.2-1-.6-1s-.6.2-.9.6v7.8h-1.7v-9.7Z"/>
    <path class="st0" d="M356.9,254.8v-2.9c0-2.3.8-3.6,2.4-3.6s2.3,1.3,2.3,3.7v1.4h-3v1.9c0,1,.2,1.3.7,1.3s.6-.4.6-1.3v-.8h1.7v.7c0,2-.8,3.1-2.3,3.1s-2.4-1.3-2.4-3.6ZM359.9,252.3v-.9c0-1-.2-1.4-.7-1.4s-.7.4-.7,1.7v.7h1.3Z"/>
    <path class="st0" d="M366,245h1.8v1.9h-1.8v-1.9ZM366,248.5h1.8v9.7h-1.8v-9.7Z"/>
    <path class="st0" d="M368.8,255.7l1.3-.7c.2,1.1.5,1.6,1.1,1.6s.6-.3.6-.8-.2-.9-.8-1.5l-.9-1c-.7-.7-1.1-1.4-1.1-2.6s.9-2.5,2.1-2.5,2,1,2.2,2.5l-1.2.6c-.1-.8-.4-1.5-1-1.5s-.6.3-.6.8.3.8.7,1.3l.9,1.1c.6.7,1.2,1.4,1.2,2.7s-1,2.6-2.2,2.6-2.1-.9-2.4-2.6Z"/>
    <path class="st0" d="M377.4,256c0-2.4,1.5-3.2,3-3.9v-.8c0-.8,0-1.3-.6-1.3s-.6.4-.6,1.1v.6s-1.7,0-1.7,0c0-2.2.8-3.3,2.5-3.3s2.2,1.1,2.2,3v4.5c0,1.1,0,1.8.1,2.4h-1.6c0-.4-.2-1.1-.2-1.4-.2.8-.7,1.5-1.5,1.5s-1.6-1.2-1.6-2.3ZM380.4,256v-2.7c-.8.6-1.4,1.1-1.4,2.2s.2,1.2.6,1.2.6-.4.8-.6Z"/>
    <path class="st0" d="M221.5,270.2h-.8v-1.6h.8v-.6c0-1.4.1-3.2,2.7-3.2s1.5.1,2.6.4v13.1h-1.8v-11.9c-.2,0-.4,0-.6,0-1.1,0-1.1.7-1.1,1.6v.6h1v1.6h-1v8.1h-1.8v-8.1Z"/>
    <path class="st0" d="M228,276.2c0-2.4,1.5-3.2,3-3.9v-.8c0-.8,0-1.3-.6-1.3s-.6.4-.6,1.1v.6s-1.7,0-1.7,0c0-2.2.8-3.3,2.5-3.3s2.2,1.1,2.2,3v4.5c0,1.1,0,1.8.1,2.4h-1.6c0-.4-.2-1.1-.2-1.4-.2.8-.7,1.5-1.5,1.5s-1.6-1.2-1.6-2.3ZM231,276.1v-2.7c-.8.6-1.4,1.1-1.4,2.2s.2,1.2.6,1.2.6-.4.8-.6Z"/>
    <path class="st0" d="M234.3,275.9v-5.8h-.8v-1.5h.8v-2.9h1.8v2.9h1.1v1.5h-1.1v5.6c0,.7.2.9.7.9s.4,0,.5,0v1.8c-.3,0-.7.1-1.1.1-1.4,0-1.9-1-1.9-2.5Z"/>
    <path class="st0" d="M241.3,274.9v-2.9c0-2.2.7-3.5,2.4-3.5s2.3,1,2.3,3v.8h-1.7v-.9c0-1-.2-1.3-.6-1.3s-.7.4-.7,1.6v3.6c0,1.2.2,1.6.7,1.6s.6-.5.6-1.3v-1h1.7v.9c0,2-.7,3-2.3,3s-2.4-1.4-2.4-3.5Z"/>
    <path class="st0" d="M247.3,265.2h1.8v1.9h-1.8v-1.9ZM247.3,268.6h1.8v9.7h-1.8v-9.7Z"/>
    <path class="st0" d="M250.5,268.6h1.8v1.5c.5-1.1,1-1.6,1.6-1.6s.2,0,.3,0v2.4c-.2-.1-.5-.2-.7-.2-.5,0-.8.3-1.2.9v6.7h-1.8v-9.7Z"/>
    <path class="st0" d="M254.9,274.9v-2.9c0-2.2.7-3.5,2.4-3.5s2.3,1,2.3,3v.8h-1.7v-.9c0-1-.2-1.3-.6-1.3s-.7.4-.7,1.6v3.6c0,1.2.2,1.6.7,1.6s.6-.5.6-1.3v-1h1.7v.9c0,2-.7,3-2.3,3s-2.4-1.4-2.4-3.5Z"/>
    <path class="st0" d="M260.9,264.7h1.8v13.6h-1.8v-13.6Z"/>
    <path class="st0" d="M263.9,274.9v-2.9c0-2.3.8-3.6,2.4-3.6s2.3,1.3,2.3,3.7v1.4h-3v1.9c0,1,.2,1.3.7,1.3s.6-.4.6-1.3v-.8h1.7v.7c0,2-.8,3.1-2.3,3.1s-2.4-1.3-2.4-3.6ZM267,272.4v-.9c0-1-.2-1.4-.7-1.4s-.7.4-.7,1.7v.7h1.3Z"/>
    <path class="st0" d="M269.8,276h1.7v2.3h-1.7v-2.3Z"/>
    <path class="st0" d="M276,264.7h4.4v1.7h-2.5v3.9h2v1.7h-2v4.5h2.5v1.7h-4.5v-13.6Z"/>
    <path class="st0" d="M280.9,268.6h1.7l.8,7,.8-7h1.7l-1.5,9.7h-2l-1.5-9.7Z"/>
    <path class="st0" d="M286.6,274.9v-2.9c0-2.3.8-3.6,2.4-3.6s2.3,1.3,2.3,3.7v1.4h-3v1.9c0,1,.2,1.3.7,1.3s.6-.4.6-1.3v-.8h1.7v.7c0,2-.8,3.1-2.3,3.1s-2.4-1.3-2.4-3.6ZM289.6,272.4v-.9c0-1-.2-1.4-.7-1.4s-.7.4-.7,1.7v.7h1.3Z"/>
    <path class="st0" d="M292.5,268.6h1.8v1.5c.5-1.1,1-1.6,1.6-1.6s.2,0,.3,0v2.4c-.2-.1-.5-.2-.7-.2-.5,0-.8.3-1.2.9v6.7h-1.8v-9.7Z"/>
    <path class="st0" d="M297.2,279.3c.9,0,1.3-.2,1.3-.8s-.1-1-.3-1.7l-1.7-8.2h1.7l1,6.4.8-6.4h1.7l-1.8,10.1c-.3,1.7-1.2,2.3-2.5,2.3h-.3v-1.6Z"/>
    <path class="st0" d="M302.9,275.9v-5.8h-.8v-1.5h.8v-2.9h1.8v2.9h1.1v1.5h-1.1v5.6c0,.7.2.9.7.9s.4,0,.5,0v1.8c-.3,0-.7.1-1.1.1-1.4,0-1.9-1-1.9-2.5Z"/>
    <path class="st0" d="M306.9,264.7h1.8v4.8c.5-.7,1.1-1.1,1.9-1.1s1.2,1,1.2,2.1v7.7h-1.8v-7.3c0-.6-.1-.9-.5-.9s-.6.2-.8.5v7.7h-1.8v-13.6Z"/>
    <path class="st0" d="M313.2,265.2h1.8v1.9h-1.8v-1.9ZM313.2,268.6h1.8v9.7h-1.8v-9.7Z"/>
    <path class="st0" d="M316.4,268.6h1.8v1c.5-.7,1.1-1.1,1.8-1.1s1.3,1,1.3,2.1v7.7h-1.8v-7.3c0-.6-.1-.9-.5-.9s-.5.2-.8.5v7.7h-1.8v-9.7Z"/>
    <path class="st0" d="M322.1,279.6c0-.9.5-1.5,1.1-1.9-.6-.2-.9-.7-.9-1.3s.3-1.2.8-1.8c-.5-.6-.8-1.4-.8-2.7,0-2.2.8-3.4,2.4-3.4s1.3.3,1.7.9c.1-.3.5-.7,1-1h.2c0-.1.4,1.1.4,1.1-.3.1-1,.5-1.2.7.2.4.3,1.2.3,1.8,0,2-.7,3.4-2.3,3.4s-.7,0-1-.2c-.1.2-.2.4-.2.7s.2.4.7.5l1.6.2c1.2.2,1.8,1,1.8,2.5s-.9,2.7-2.9,2.7-2.6-.6-2.6-1.9ZM326.4,278.9c0-.5-.2-.8-1.1-.9l-1.3-.2c-.3.3-.5.6-.5,1.1s.4.8,1.4.8,1.5-.2,1.5-.9ZM325.6,271.9c0-1.3-.1-2-.7-2s-.8.6-.8,2,.1,1.9.8,1.9.7-.6.7-1.9Z"/>
    <path class="st0" d="M331.4,268.6h1.5l.7,6.3.8-6.3h1.3l.7,6.4.7-6.4h1.4l-1.2,9.7h-1.5l-.8-6.1-.9,6.1h-1.5l-1.2-9.7Z"/>
    <path class="st0" d="M339.4,274.9v-2.9c0-2.3.8-3.6,2.4-3.6s2.3,1.3,2.3,3.7v1.4h-3v1.9c0,1,.2,1.3.7,1.3s.6-.4.6-1.3v-.8h1.7v.7c0,2-.8,3.1-2.3,3.1s-2.4-1.3-2.4-3.6ZM342.5,272.4v-.9c0-1-.2-1.4-.7-1.4s-.7.4-.7,1.7v.7h1.3Z"/>
    <path class="st0" d="M344.9,264.7h1.5l-.6,4.6h-.9v-4.6Z"/>
    <path class="st0" d="M346.8,268.6h1.7l.8,7,.8-7h1.7l-1.5,9.7h-2l-1.5-9.7Z"/>
    <path class="st0" d="M352.4,274.9v-2.9c0-2.3.8-3.6,2.4-3.6s2.3,1.3,2.3,3.7v1.4h-3v1.9c0,1,.2,1.3.7,1.3s.6-.4.6-1.3v-.8h1.7v.7c0,2-.8,3.1-2.3,3.1s-2.4-1.3-2.4-3.6ZM355.5,272.4v-.9c0-1-.2-1.4-.7-1.4s-.7.4-.7,1.7v.7h1.3Z"/>
    <path class="st0" d="M361.4,274.9v-2.9c0-2.3.8-3.6,2.4-3.6s2.3,1.3,2.3,3.7v1.4h-3v1.9c0,1,.2,1.3.7,1.3s.6-.4.6-1.3v-.8h1.7v.7c0,2-.8,3.1-2.3,3.1s-2.4-1.3-2.4-3.6ZM364.4,272.4v-.9c0-1-.2-1.4-.7-1.4s-.7.4-.7,1.7v.7h1.3Z"/>
    <path class="st0" d="M366.8,268.6h1.7l.8,7,.8-7h1.7l-1.5,9.7h-2l-1.5-9.7Z"/>
    <path class="st0" d="M372.4,274.9v-2.9c0-2.3.8-3.6,2.4-3.6s2.3,1.3,2.3,3.7v1.4h-3v1.9c0,1,.2,1.3.7,1.3s.6-.4.6-1.3v-.8h1.7v.7c0,2-.8,3.1-2.3,3.1s-2.4-1.3-2.4-3.6ZM375.5,272.4v-.9c0-1-.2-1.4-.7-1.4s-.7.4-.7,1.7v.7h1.3Z"/>
    <path class="st0" d="M378.4,268.6h1.8v1.5c.5-1.1,1-1.6,1.6-1.6s.2,0,.3,0v2.4c-.2-.1-.5-.2-.7-.2-.5,0-.8.3-1.2.9v6.7h-1.8v-9.7Z"/>
    <path class="st0" d="M224.9,295.2v-3c0-2,.4-3.6,1.8-3.6s1,.3,1.4.8v-4.5h1.8v13.6h-1.8v-.7c-.4.5-.8.8-1.3.8-1.2,0-1.8-1-1.8-3.5ZM228,296.7v-6.2c-.2-.2-.4-.3-.7-.3-.5,0-.7.7-.7,1.5v3.6c0,1,.1,1.7.7,1.7s.5-.1.7-.3Z"/>
    <path class="st0" d="M231,295.2v-3.3c0-2.2.8-3.4,2.4-3.4s2.4,1.2,2.4,3.4v3.3c0,2.2-.8,3.4-2.4,3.4s-2.4-1.2-2.4-3.4ZM234.1,295.4v-3.6c0-.9,0-1.6-.7-1.6s-.7.7-.7,1.6v3.6c0,.9,0,1.6.7,1.6s.7-.7.7-1.6Z"/>
    <path class="st0" d="M237.1,288.8h1.8v1c.5-.7,1.1-1.1,1.8-1.1s1.3,1,1.3,2.1v7.7h-1.8v-7.3c0-.6-.1-.9-.5-.9s-.5.2-.8.5v7.7h-1.8v-9.7Z"/>
    <path class="st0" d="M243.1,295.1v-2.9c0-2.3.8-3.6,2.4-3.6s2.3,1.3,2.3,3.7v1.4h-3v1.9c0,1,.2,1.3.7,1.3s.6-.4.6-1.3v-.8h1.7v.7c0,2-.8,3.1-2.3,3.1s-2.4-1.3-2.4-3.6ZM246.2,292.6v-.9c0-1-.2-1.4-.7-1.4s-.7.4-.7,1.7v.7h1.3Z"/>
    <path class="st0" d="M252.1,295.2v-3.3c0-2.2.8-3.4,2.4-3.4s2.4,1.2,2.4,3.4v3.3c0,2.2-.8,3.4-2.4,3.4s-2.4-1.2-2.4-3.4ZM255.2,295.4v-3.6c0-.9,0-1.6-.7-1.6s-.7.7-.7,1.6v3.6c0,.9,0,1.6.7,1.6s.7-.7.7-1.6Z"/>
    <path class="st0" d="M258.2,288.8h1.8v1.5c.5-1.1,1-1.6,1.6-1.6s.2,0,.3,0v2.4c-.2-.1-.5-.2-.7-.2-.5,0-.8.3-1.2.9v6.7h-1.8v-9.7Z"/>
    <path class="st0" d="M265.6,288.8h1.5l.7,6.3.8-6.3h1.3l.7,6.4.7-6.4h1.4l-1.2,9.7h-1.5l-.8-6.1-.9,6.1h-1.5l-1.2-9.7Z"/>
    <path class="st0" d="M273.7,285.3h1.8v1.9h-1.8v-1.9ZM273.7,288.8h1.8v9.7h-1.8v-9.7Z"/>
    <path class="st0" d="M277,284.9h1.8v13.6h-1.8v-13.6Z"/>
    <path class="st0" d="M280.3,284.9h1.8v13.6h-1.8v-13.6Z"/>
    <path class="st0" d="M286.5,295.2v-3c0-2,.4-3.6,1.8-3.6s1,.3,1.4.8v-4.5h1.8v13.6h-1.8v-.7c-.4.5-.8.8-1.3.8-1.2,0-1.8-1-1.8-3.5ZM289.6,296.7v-6.2c-.2-.2-.4-.3-.7-.3-.5,0-.7.7-.7,1.5v3.6c0,1,.1,1.7.7,1.7s.5-.1.7-.3Z"/>
    <path class="st0" d="M292.7,295.2v-3.3c0-2.2.8-3.4,2.4-3.4s2.4,1.2,2.4,3.4v3.3c0,2.2-.8,3.4-2.4,3.4s-2.4-1.2-2.4-3.4ZM295.7,295.4v-3.6c0-.9,0-1.6-.7-1.6s-.7.7-.7,1.6v3.6c0,.9,0,1.6.7,1.6s.7-.7.7-1.6Z"/>
    <path class="st0" d="M298.7,299.9c.5-.2.8-.6.8-1.4h-.9v-2.3h1.7v2.1c0,1.4-.5,2.2-1.5,2.5l-.2-.8Z"/>
    <path class="st0" d="M304.3,288.8h1.5l.7,6.3.8-6.3h1.3l.7,6.4.7-6.4h1.4l-1.2,9.7h-1.5l-.8-6.1-.9,6.1h-1.5l-1.2-9.7Z"/>
    <path class="st0" d="M312.2,295.1v-2.9c0-2.3.8-3.6,2.4-3.6s2.3,1.3,2.3,3.7v1.4h-3v1.9c0,1,.2,1.3.7,1.3s.6-.4.6-1.3v-.8h1.7v.7c0,2-.8,3.1-2.3,3.1s-2.4-1.3-2.4-3.6ZM315.3,292.6v-.9c0-1-.2-1.4-.7-1.4s-.7.4-.7,1.7v.7h1.3Z"/>
    <path class="st0" d="M317.8,284.9h1.5l-.6,4.6h-.9v-4.6Z"/>
    <path class="st0" d="M320.2,288.8h1.8v1.5c.5-1.1,1-1.6,1.6-1.6s.2,0,.3,0v2.4c-.2-.1-.5-.2-.7-.2-.5,0-.8.3-1.2.9v6.7h-1.8v-9.7Z"/>
    <path class="st0" d="M324.6,295.1v-2.9c0-2.3.8-3.6,2.4-3.6s2.3,1.3,2.3,3.7v1.4h-3v1.9c0,1,.2,1.3.7,1.3s.6-.4.6-1.3v-.8h1.7v.7c0,2-.8,3.1-2.3,3.1s-2.4-1.3-2.4-3.6ZM327.6,292.6v-.9c0-1-.2-1.4-.7-1.4s-.7.4-.7,1.7v.7h1.3Z"/>
    <path class="st0" d="M333.3,299.7c0-.9.5-1.5,1.1-1.9-.6-.2-.9-.7-.9-1.3s.3-1.2.8-1.8c-.5-.6-.8-1.4-.8-2.7,0-2.2.8-3.4,2.4-3.4s1.3.3,1.7.9c.1-.3.5-.7,1-1h.2c0-.1.4,1.1.4,1.1-.3.1-1,.5-1.2.7.2.4.3,1.2.3,1.8,0,2-.7,3.4-2.3,3.4s-.7,0-1-.2c-.1.2-.2.4-.2.7s.2.4.7.5l1.6.2c1.2.2,1.8,1,1.8,2.5s-.9,2.7-2.9,2.7-2.6-.6-2.6-1.9ZM337.6,299.1c0-.5-.2-.8-1.1-.9l-1.3-.2c-.3.3-.5.6-.5,1.1s.4.8,1.4.8,1.5-.2,1.5-.9ZM336.7,292c0-1.3-.1-2-.7-2s-.8.6-.8,2,.1,1.9.8,1.9.7-.6.7-1.9Z"/>
    <path class="st0" d="M339.6,295.2v-3.3c0-2.2.8-3.4,2.4-3.4s2.4,1.2,2.4,3.4v3.3c0,2.2-.8,3.4-2.4,3.4s-2.4-1.2-2.4-3.4ZM342.7,295.4v-3.6c0-.9,0-1.6-.7-1.6s-.7.7-.7,1.6v3.6c0,.9,0,1.6.7,1.6s.7-.7.7-1.6Z"/>
    <path class="st0" d="M345.7,288.8h1.8v1c.5-.7,1.1-1.1,1.8-1.1s1.3,1,1.3,2.1v7.7h-1.8v-7.3c0-.6-.1-.9-.5-.9s-.5.2-.8.5v7.7h-1.8v-9.7Z"/>
    <path class="st0" d="M351.9,288.8h1.8v1c.5-.7,1.1-1.1,1.8-1.1s1.3,1,1.3,2.1v7.7h-1.8v-7.3c0-.6-.1-.9-.5-.9s-.5.2-.8.5v7.7h-1.8v-9.7Z"/>
    <path class="st0" d="M357.9,296.3c0-2.4,1.5-3.2,3-3.9v-.8c0-.8,0-1.3-.6-1.3s-.6.4-.6,1.1v.6s-1.7,0-1.7,0c0-2.2.8-3.3,2.5-3.3s2.2,1.1,2.2,3v4.5c0,1.1,0,1.8.1,2.4h-1.6c0-.4-.2-1.1-.2-1.4-.2.8-.7,1.5-1.5,1.5s-1.6-1.2-1.6-2.3ZM360.9,296.3v-2.7c-.8.6-1.4,1.1-1.4,2.2s.2,1.2.6,1.2.6-.4.8-.6Z"/>
    <path class="st0" d="M367,295.2v-3c0-2,.4-3.6,1.8-3.6s1,.3,1.4.8v-4.5h1.8v13.6h-1.8v-.7c-.4.5-.8.8-1.3.8-1.2,0-1.8-1-1.8-3.5ZM370.1,296.7v-6.2c-.2-.2-.4-.3-.7-.3-.5,0-.7.7-.7,1.5v3.6c0,1,.1,1.7.7,1.7s.5-.1.7-.3Z"/>
    <path class="st0" d="M373.1,295.2v-3.3c0-2.2.8-3.4,2.4-3.4s2.4,1.2,2.4,3.4v3.3c0,2.2-.8,3.4-2.4,3.4s-2.4-1.2-2.4-3.4ZM376.2,295.4v-3.6c0-.9,0-1.6-.7-1.6s-.7.7-.7,1.6v3.6c0,.9,0,1.6.7,1.6s.7-.7.7-1.6Z"/>
    <path class="st0" d="M230,315.4v-3.3c0-2.2.8-3.4,2.4-3.4s2.4,1.2,2.4,3.4v3.3c0,2.2-.8,3.4-2.4,3.4s-2.4-1.2-2.4-3.4ZM233.1,315.6v-3.6c0-.9,0-1.6-.7-1.6s-.7.7-.7,1.6v3.6c0,.9,0,1.6.7,1.6s.7-.7.7-1.6Z"/>
    <path class="st0" d="M235.5,308.9h1.7l.8,7,.8-7h1.7l-1.5,9.7h-2l-1.5-9.7Z"/>
    <path class="st0" d="M241.1,315.2v-2.9c0-2.3.8-3.6,2.4-3.6s2.3,1.3,2.3,3.7v1.4h-3v1.9c0,1,.2,1.3.7,1.3s.6-.4.6-1.3v-.8h1.7v.7c0,2-.8,3.1-2.3,3.1s-2.4-1.3-2.4-3.6ZM244.2,312.7v-.9c0-1-.2-1.4-.7-1.4s-.7.4-.7,1.7v.7h1.3Z"/>
    <path class="st0" d="M247.1,308.9h1.8v1.5c.5-1.1,1-1.6,1.6-1.6s.2,0,.3,0v2.4c-.2-.1-.5-.2-.7-.2-.5,0-.8.3-1.2.9v6.7h-1.8v-9.7Z"/>
    <path class="st0" d="M254.7,316.5c0-2.4,1.5-3.2,3-3.9v-.8c0-.8,0-1.3-.6-1.3s-.6.4-.6,1.1v.6s-1.7,0-1.7,0c0-2.2.8-3.3,2.5-3.3s2.2,1.1,2.2,3v4.5c0,1.1,0,1.8.1,2.4h-1.6c0-.4-.2-1.1-.2-1.4-.2.8-.7,1.5-1.5,1.5s-1.6-1.2-1.6-2.3ZM257.7,316.4v-2.7c-.8.6-1.4,1.1-1.4,2.2s.2,1.2.6,1.2.6-.4.8-.6Z"/>
    <path class="st0" d="M260.7,308.9h1.8v1c.5-.7,1.1-1.1,1.8-1.1s1.3,1,1.3,2.1v7.7h-1.8v-7.3c0-.6-.1-.9-.5-.9s-.5.2-.8.5v7.7h-1.8v-9.7Z"/>
    <path class="st0" d="M266.8,315.3v-3c0-2,.4-3.6,1.8-3.6s1,.3,1.4.8v-4.5h1.8v13.6h-1.8v-.7c-.4.5-.8.8-1.3.8-1.2,0-1.8-1-1.8-3.5ZM269.9,316.9v-6.2c-.2-.2-.4-.3-.7-.3-.5,0-.7.7-.7,1.5v3.6c0,1,.1,1.7.7,1.7s.5-.1.7-.3Z"/>
    <path class="st0" d="M276.1,315.4v-3.3c0-2.2.8-3.4,2.4-3.4s2.4,1.2,2.4,3.4v3.3c0,2.2-.8,3.4-2.4,3.4s-2.4-1.2-2.4-3.4ZM279.2,315.6v-3.6c0-.9,0-1.6-.7-1.6s-.7.7-.7,1.6v3.6c0,.9,0,1.6.7,1.6s.7-.7.7-1.6Z"/>
    <path class="st0" d="M281.7,308.9h1.7l.8,7,.8-7h1.7l-1.5,9.7h-2l-1.5-9.7Z"/>
    <path class="st0" d="M287.3,315.2v-2.9c0-2.3.8-3.6,2.4-3.6s2.3,1.3,2.3,3.7v1.4h-3v1.9c0,1,.2,1.3.7,1.3s.6-.4.6-1.3v-.8h1.7v.7c0,2-.8,3.1-2.3,3.1s-2.4-1.3-2.4-3.6ZM290.4,312.7v-.9c0-1-.2-1.4-.7-1.4s-.7.4-.7,1.7v.7h1.3Z"/>
    <path class="st0" d="M293.3,308.9h1.8v1.5c.5-1.1,1-1.6,1.6-1.6s.2,0,.3,0v2.4c-.2-.1-.5-.2-.7-.2-.5,0-.8.3-1.2.9v6.7h-1.8v-9.7Z"/>
    <path class="st0" d="M300.8,316.5c0-2.4,1.5-3.2,3-3.9v-.8c0-.8,0-1.3-.6-1.3s-.6.4-.6,1.1v.6s-1.7,0-1.7,0c0-2.2.8-3.3,2.5-3.3s2.2,1.1,2.2,3v4.5c0,1.1,0,1.8.1,2.4h-1.6c0-.4-.2-1.1-.2-1.4-.2.8-.7,1.5-1.5,1.5s-1.6-1.2-1.6-2.3ZM303.9,316.4v-2.7c-.8.6-1.4,1.1-1.4,2.2s.2,1.2.6,1.2.6-.4.8-.6Z"/>
    <path class="st0" d="M306.9,308.9h1.8v1c.5-.7,1.1-1.1,1.8-1.1s1.3,1,1.3,2.1v7.7h-1.8v-7.3c0-.6-.1-.9-.5-.9s-.5.2-.8.5v7.7h-1.8v-9.7Z"/>
    <path class="st0" d="M312.9,315.3v-3c0-2,.4-3.6,1.8-3.6s1,.3,1.4.8v-4.5h1.8v13.6h-1.8v-.7c-.4.5-.8.8-1.3.8-1.2,0-1.8-1-1.8-3.5ZM316.1,316.9v-6.2c-.2-.2-.4-.3-.7-.3-.5,0-.7.7-.7,1.5v3.6c0,1,.1,1.7.7,1.7s.5-.1.7-.3Z"/>
    <path class="st0" d="M322.3,315.4v-3.3c0-2.2.8-3.4,2.4-3.4s2.4,1.2,2.4,3.4v3.3c0,2.2-.8,3.4-2.4,3.4s-2.4-1.2-2.4-3.4ZM325.4,315.6v-3.6c0-.9,0-1.6-.7-1.6s-.7.7-.7,1.6v3.6c0,.9,0,1.6.7,1.6s.7-.7.7-1.6Z"/>
    <path class="st0" d="M327.8,308.9h1.7l.8,7,.8-7h1.7l-1.5,9.7h-2l-1.5-9.7Z"/>
    <path class="st0" d="M333.4,315.2v-2.9c0-2.3.8-3.6,2.4-3.6s2.3,1.3,2.3,3.7v1.4h-3v1.9c0,1,.2,1.3.7,1.3s.6-.4.6-1.3v-.8h1.7v.7c0,2-.8,3.1-2.3,3.1s-2.4-1.3-2.4-3.6ZM336.5,312.7v-.9c0-1-.2-1.4-.7-1.4s-.7.4-.7,1.7v.7h1.3Z"/>
    <path class="st0" d="M339.4,308.9h1.8v1.5c.5-1.1,1-1.6,1.6-1.6s.2,0,.3,0v2.4c-.2-.1-.5-.2-.7-.2-.5,0-.8.3-1.2.9v6.7h-1.8v-9.7Z"/>
    <path class="st0" d="M347,316.5c0-2.4,1.5-3.2,3-3.9v-.8c0-.8,0-1.3-.6-1.3s-.6.4-.6,1.1v.6s-1.7,0-1.7,0c0-2.2.8-3.3,2.5-3.3s2.2,1.1,2.2,3v4.5c0,1.1,0,1.8.1,2.4h-1.6c0-.4-.2-1.1-.2-1.4-.2.8-.7,1.5-1.5,1.5s-1.6-1.2-1.6-2.3ZM350,316.4v-2.7c-.8.6-1.4,1.1-1.4,2.2s.2,1.2.6,1.2.6-.4.8-.6Z"/>
    <path class="st0" d="M352.6,319.9c0-.9.5-1.5,1.1-1.9-.6-.2-.9-.7-.9-1.3s.3-1.2.8-1.8c-.5-.6-.8-1.4-.8-2.7,0-2.2.8-3.4,2.4-3.4s1.3.3,1.7.9c.1-.3.5-.7,1-1h.2c0-.1.4,1.1.4,1.1-.3.1-1,.5-1.2.7.2.4.3,1.2.3,1.8,0,2-.7,3.4-2.3,3.4s-.7,0-1-.2c-.1.2-.2.4-.2.7s.2.4.7.5l1.6.2c1.2.2,1.8,1,1.8,2.5s-.9,2.7-2.9,2.7-2.6-.6-2.6-1.9ZM356.9,319.2c0-.5-.2-.8-1.1-.9l-1.3-.2c-.3.3-.5.6-.5,1.1s.4.8,1.4.8,1.5-.2,1.5-.9ZM356.1,312.2c0-1.3-.1-2-.7-2s-.8.6-.8,2,.1,1.9.8,1.9.7-.6.7-1.9Z"/>
    <path class="st0" d="M359,316.5c0-2.4,1.5-3.2,3-3.9v-.8c0-.8,0-1.3-.6-1.3s-.6.4-.6,1.1v.6s-1.7,0-1.7,0c0-2.2.8-3.3,2.5-3.3s2.2,1.1,2.2,3v4.5c0,1.1,0,1.8.1,2.4h-1.6c0-.4-.2-1.1-.2-1.4-.2.8-.7,1.5-1.5,1.5s-1.6-1.2-1.6-2.3ZM362,316.4v-2.7c-.8.6-1.4,1.1-1.4,2.2s.2,1.2.6,1.2.6-.4.8-.6Z"/>
    <path class="st0" d="M365.1,305.5h1.8v1.9h-1.8v-1.9ZM365.1,308.9h1.8v9.7h-1.8v-9.7Z"/>
    <path class="st0" d="M368.3,308.9h1.8v1c.5-.7,1.1-1.1,1.8-1.1s1.3,1,1.3,2.1v7.7h-1.8v-7.3c0-.6-.1-.9-.5-.9s-.5.2-.8.5v7.7h-1.8v-9.7Z"/>
    <path class="st0" d="M374.4,316.3h1.7v2.3h-1.7v-2.3Z"/>
  </g>
</svg>