<svg xmlns="http://www.w3.org/2000/svg" id="Layer_2" data-name="Layer 2" viewBox="0 0 1118.21 440.44"><defs><style>      .cls-1 {        letter-spacing: 0em;      }      .cls-2 {        font-family: ITCAvantGardePro-Bold, 'ITC Avant Garde Gothic Pro';        font-size: 163.43px;        font-weight: 700;      }      .cls-2, .cls-3 {        fill: #fff;      }      .cls-4 {        letter-spacing: -.03em;      }      .cls-5 {        fill: #154587;      }      .cls-5, .cls-6, .cls-7, .cls-3 {        stroke-width: 0px;      }      .cls-6 {        fill: #f04323;      }      .cls-7 {        fill: #efefef;      }    </style></defs><g id="Layer_1-2" data-name="Layer 1"><g><text class="cls-2" transform="translate(511.73 195.11) scale(1.04 1)"><tspan x="0" y="0">MA</tspan><tspan class="cls-4" x="273.42" y="0">S</tspan><tspan class="cls-1" x="362.16" y="0">YK</tspan></text><g><path class="cls-3" d="M521.04,390.41v-120.94h41.18c15.04,0,26.97,2.61,35.46,7.35,17.16,9.81,27.95,28.44,27.95,53.11,0,39.88-23.53,60.47-61.29,60.47h-43.31Z"></path><path class="cls-3" d="M643.94,390.41v-120.94h67.17v27.13h-37.59v18.79h36.44v27.13h-36.44v20.76h37.59v27.13h-67.17Z"></path><path class="cls-3" d="M777.62,304.78c-1.31-8.66-4.9-11.77-10.95-11.77-5.72,0-10.62,4.09-10.62,9.48,0,7.19,6.54,10.46,19.77,16.18,26.64,11.44,33.34,21.08,33.34,36.93,0,23.37-16.02,37.1-42.17,37.1s-43.64-13.73-43.64-39.71v-2.61h30.72c.16,9.97,5.07,16.51,12.75,16.51,6.37,0,11.6-5.07,11.6-11.6,0-9.64-13.4-13.89-24.35-18.3-19.77-8.01-28.76-18.47-28.76-34.16,0-20.59,19.94-35.63,42.16-35.63,8.01,0,15.04,1.8,21.41,5.07,12.91,6.7,19.12,16.34,19.28,32.52h-30.56Z"></path><path class="cls-3" d="M823.87,390.41v-120.94h30.89v120.94h-30.89Z"></path><path class="cls-3" d="M1000.21,328.47c0,32.52-23.86,64.39-64.55,64.39-35.79,0-64.23-27.95-64.23-63.41s29.58-62.27,64.72-62.27c27.29,0,53.6,18.47,60.47,42.82h-34.65c-5.72-9.97-15.04-15.69-26.64-15.69-19.45,0-33.01,15.69-33.01,35.14s12.75,36.28,33.18,36.28c14.38,0,25.17-7.03,28.93-19.45h-36.12v-24.68h71.91v6.86Z"></path><path class="cls-3" d="M1091.4,390.41l-46.41-73.87.82,73.87h-29.58v-120.94h26.64l47.07,76.48-1.31-76.48h29.58v120.94h-26.8Z"></path></g></g><g><path class="cls-5" d="M230.12,440.44H0V0s230.12,0,230.12,0c289.52,4.94,289.39,435.56,0,440.44Z"></path><g><path class="cls-6" d="M336.04,320.85c-23.83,0-43.23-19.39-43.23-43.23s19.39-43.23,43.23-43.23,43.23,19.39,43.23,43.23-19.39,43.23-43.23,43.23Z"></path><path class="cls-7" d="M310.33,213.58c1.69-1.84,3.39-3.66,5.13-5.45,5.38-5.56,8.39-12.99,8.39-20.73v-71.38c0-6.92-5.67-11.91-11.94-11.91-1.76,0-3.57.39-5.31,1.25-38.79,18.99-53.5,85.22-91.78,103.54-1.71.82-3.48,1.19-5.2,1.19-6.27,0-11.93-5.01-11.93-11.91v-81.57c0-6.81-5.59-11.95-11.88-11.95-1.4,0-2.84.26-4.26.81-47.16,18.3-64.99,98.19-114.92,108.46-5.59,1.15-9.67,5.98-9.67,11.69v88.52c0,6.79,5.56,11.92,11.89,11.92,1.24,0,2.5-.2,3.76-.61,44.7-14.85,63.1-86.83,106.71-105.91,1.6-.7,3.23-1.02,4.83-1.02,6.29,0,11.93,5.03,11.93,11.91v81.64c0,6.85,5.62,11.92,11.9,11.92,1.52,0,3.07-.29,4.59-.93,21.72-9.06,38.95-29.69,54.74-51.88,2.44-26.17,19.55-48.13,43.01-57.58Z"></path></g></g></g></svg>