<?xml version="1.0" encoding="UTF-8"?>
<svg id="Layer_2" data-name="Layer 2" xmlns="http://www.w3.org/2000/svg" viewBox="0 0 1090.48 1090.48">
  <defs>
    <style>
      .cls-1 {
        fill: none;
        stroke: #fff;
        stroke-miterlimit: 10;
        stroke-width: 5px;
      }
    </style>
  </defs>
  <g id="Layer_1-2" data-name="Layer 1">
    <path class="cls-1" d="M1045.3,333.96c-27.34-64.63-66.46-122.67-116.29-172.5-49.83-49.83-107.87-88.95-172.5-116.29C689.57,16.86,618.49,2.5,545.24,2.5s-144.33,14.36-211.27,42.67c-64.63,27.34-122.67,66.46-172.5,116.29-49.83,49.83-88.95,107.87-116.29,172.5C16.86,400.91,2.5,471.99,2.5,545.24s14.36,144.33,42.67,211.27c27.34,64.63,66.46,122.67,116.29,172.5,49.83,49.83,107.87,88.95,172.5,116.29,66.94,28.32,138.03,42.67,211.27,42.67s144.33-14.36,211.27-42.67c64.63-27.34,122.67-66.46,172.5-116.29,49.83-49.83,88.95-107.87,116.29-172.5,28.32-66.94,42.67-138.03,42.67-211.27s-14.36-144.33-42.67-211.27ZM371.49,814.22c0-95.81,77.94-173.75,173.75-173.75s173.75,77.94,173.75,173.75-77.94,173.75-173.75,173.75-173.75-77.94-173.75-173.75ZM818.23,834.77c.5-6.8.76-13.66.76-20.55,0-73.12-28.47-141.87-80.18-193.57s-120.45-80.18-193.57-80.18-141.87,28.48-193.57,80.18c-51.7,51.71-80.18,120.45-80.18,193.57,0,6.89.25,13.75.76,20.55-30.37-49.62-46.62-106.77-46.62-166.42,0-85.37,33.25-165.64,93.61-226s140.63-93.61,226-93.61,165.64,33.25,226,93.61c60.37,60.37,93.61,140.63,93.61,226,0,59.65-16.25,116.8-46.62,166.42ZM964.39,688.23c.31-6.6.46-13.23.46-19.88,0-56.63-11.1-111.58-33-163.35-21.14-49.97-51.39-94.84-89.91-133.36-38.52-38.52-83.39-68.77-133.36-89.91-51.76-21.89-106.72-33-163.35-33s-111.58,11.1-163.35,33c-49.97,21.14-94.84,51.39-133.37,89.91-38.52,38.52-68.77,83.39-89.91,133.36-21.89,51.76-33,106.72-33,163.35,0,6.65.16,13.27.46,19.88-15.66-45.84-23.58-93.8-23.58-143,0-59.79,11.7-117.77,34.77-172.32,22.3-52.72,54.23-100.07,94.9-140.74,40.68-40.68,88.03-72.61,140.75-94.9,54.55-23.07,112.53-34.77,172.32-34.77s117.77,11.7,172.32,34.77c52.72,22.3,100.07,54.23,140.75,94.9,40.68,40.68,72.61,88.03,94.9,140.75,23.07,54.55,34.77,112.53,34.77,172.32,0,49.19-7.93,97.16-23.58,143Z"/>
  </g>
</svg>