<?xml version="1.0" encoding="UTF-8"?>
<svg id="Layer_2" data-name="Layer 2" xmlns="http://www.w3.org/2000/svg" viewBox="0 0 1149.57 1149.57">
  <defs>
    <style>
      .cls-1 {
        fill: none;
        stroke: #fff;
        stroke-miterlimit: 10;
        stroke-width: 5px;
      }
    </style>
  </defs>
  <g id="Layer_4" data-name="Layer 4">
    <circle class="cls-1" cx="574.79" cy="574.79" r="572.29"/>
    <path class="cls-1" d="M633.97,196.82l-99.26,517.47c-8.67,48.36-45.73,70.7-86.69,70.7s-74.02-25.23-84.05-59.57h-184.76c11.4,127.33,127.19,227.33,268.81,227.33s248.18-86.46,268.57-221.31l101.93-534.62h-184.55Z"/>
    <path class="cls-1" d="M363.8,684.67c9.87-34.5,43.67-59.96,84.22-59.96h61.36l32.19-167.67h-93.55c-141.73,0-257.65,100.18-268.92,227.63h184.69Z"/>
    <polygon class="cls-1" points="778.29 623.52 864.58 623.52 845.44 716.08 1067.95 540.19 913.15 373.58 895.96 456.55 810.16 456.55 778.29 623.52"/>
  </g>
</svg>