<?xml version="1.0" encoding="UTF-8"?>
<svg id="Layer_2" data-name="Layer 2" xmlns="http://www.w3.org/2000/svg" viewBox="0 0 1091.16 1089.76">
  <defs>
    <style>
      .cls-1 {
        fill: none;
        stroke: #fff;
        stroke-miterlimit: 10;
        stroke-width: 5px;
      }
    </style>
  </defs>
  <g id="Layer_1-2" data-name="Layer 1">
    <path class="cls-1" d="M1045.23,333.23C899.54-18.95,428.76-111.28,161.39,160.74c-340.11,341.22-98.03,925.73,383.78,926.5,384.64,3.27,652.37-401.14,500.06-754.01ZM371.41,813.49c6.02-229.11,341.51-229.07,347.5,0-6.02,229.11-341.51,229.06-347.5,0ZM818.16,834.04c15.02-154.12-118.13-297.83-273-294.3-154.85-3.53-288.04,140.18-272.99,294.3-130.53-207.74,26.96-489.56,273-486.03,246-3.55,403.55,278.36,272.99,486.03ZM964.32,687.5c14.92-233.98-184.72-443.37-419.16-439.49-234.4-3.89-434.11,205.54-419.15,439.49C26.87,404.26,244.77,98.98,545.17,101.77c300.36-2.82,518.33,302.59,419.15,585.73Z"/>
  </g>
</svg>