<?xml version="1.0" encoding="UTF-8"?>
<svg id="Layer_2" data-name="Layer 2" xmlns="http://www.w3.org/2000/svg" viewBox="0 0 666.87 262.67">
  <defs>
    <style>
      .cls-1 {
        fill: #ef4523;
      }

      .cls-2 {
        fill: #194786;
      }

      .cls-3 {
        fill: #fff;
      }

      .cls-4 {
        fill: #f0efef;
      }
    </style>
  </defs>
  <g id="Layer_1-2" data-name="Layer 1">
    <g id="Layer_1-2" data-name="Layer 1-2">
      <g>
        <g>
          <path class="cls-3" d="M373.46,116.36l.61-54-.2-.2-16.01,54.19h-12.66l-16.21-54.68.61,54.68h-17.63V44.23h24.62l14.89,47.47h.2l14.69-47.47h24.72v72.12h-17.63Z"/>
          <path class="cls-3" d="M452.98,116.36l-3.64-10.43h-26.03l-3.95,10.43h-20.56l30.09-72.12h15.09l29.78,72.12h-20.77ZM436.57,66.75l-.3-.1-7.7,24.66h15.7l-7.7-24.56h0Z"/>
          <path class="cls-3" d="M510.82,65.29c-.81-5.16-3.04-7.02-6.79-7.02-3.55,0-6.58,2.44-6.58,5.65,0,4.29,4.05,6.24,12.26,9.65,16.51,6.82,20.66,12.57,20.66,22.02,0,13.94-9.93,22.13-26.13,22.13s-27.05-8.19-27.05-23.68v-1.56h19.04c.1,5.95,3.14,9.85,7.9,9.85,3.95,0,7.19-3.02,7.19-6.92,0-5.75-8.31-8.28-15.09-10.91-12.26-4.78-17.83-11.02-17.83-20.37,0-12.28,12.36-21.25,26.13-21.25,4.96,0,9.32,1.07,13.27,3.02,8,4,11.85,9.74,11.95,19.39h-18.94,0Z"/>
          <path class="cls-3" d="M552.96,116.36v-26.22l-22.39-45.9h20.77l11.14,28.95,11.24-28.95h20.56l-22.19,45.9v26.22h-19.14,0Z"/>
          <path class="cls-3" d="M643.83,116.36l-20.46-31.18h-.2v31.18h-19.14V44.24h19.14v32.45h.2l21.17-32.45h20.06l-24.82,35.96,26.44,36.16h-22.39,0Z"/>
        </g>
        <g>
          <path class="cls-3" d="M310.73,232.83v-72.13h24.56c8.97,0,16.08,1.56,21.15,4.38,10.23,5.85,16.67,16.96,16.67,31.67,0,23.78-14.03,36.06-36.55,36.06h-25.83,0Z"/>
          <path class="cls-3" d="M384.03,232.83v-72.13h40.06v16.18h-22.42v11.21h21.73v16.18h-21.73v12.38h22.42v16.18h-40.06Z"/>
          <path class="cls-3" d="M463.75,181.76c-.78-5.16-2.92-7.02-6.53-7.02-3.41,0-6.33,2.44-6.33,5.65,0,4.29,3.9,6.24,11.79,9.65,15.89,6.82,19.88,12.57,19.88,22.02,0,13.94-9.55,22.13-25.15,22.13s-26.03-8.19-26.03-23.68v-1.56h18.32c.1,5.95,3.02,9.85,7.6,9.85,3.8,0,6.92-3.02,6.92-6.92,0-5.75-7.99-8.28-14.52-10.91-11.79-4.78-17.15-11.02-17.15-20.37,0-12.28,11.89-21.25,25.14-21.25,4.78,0,8.97,1.07,12.77,3.02,7.7,4,11.4,9.74,11.5,19.39h-18.23.01Z"/>
          <path class="cls-3" d="M491.33,232.83v-72.13h18.42v72.13h-18.42Z"/>
          <path class="cls-3" d="M596.5,195.89c0,19.39-14.23,38.4-38.5,38.4-21.34,0-38.31-16.67-38.31-37.82s17.64-37.14,38.6-37.14c16.28,0,31.97,11.02,36.06,25.54h-20.66c-3.41-5.95-8.97-9.36-15.89-9.36-11.6,0-19.69,9.36-19.69,20.96s7.6,21.64,19.79,21.64c8.58,0,15.01-4.19,17.25-11.6h-21.54v-14.72h42.89v4.09h0Z"/>
          <path class="cls-3" d="M650.88,232.83l-27.68-44.05.49,44.05h-17.64v-72.13h15.89l28.07,45.61-.78-45.61h17.64v72.13h-15.99Z"/>
        </g>
      </g>
      <g>
        <path class="cls-2" d="M137.24,262.67H0V0h137.24c172.66,2.95,172.58,259.76,0,262.67Z"/>
        <g>
          <path class="cls-1" d="M200.41,191.35c-14.21,0-25.78-11.56-25.78-25.78s11.56-25.78,25.78-25.78,25.78,11.56,25.78,25.78-11.56,25.78-25.78,25.78Z"/>
          <path class="cls-4" d="M185.07,127.37c1.01-1.1,2.02-2.18,3.06-3.25,3.21-3.32,5-7.75,5-12.36v-42.57c0-4.13-3.38-7.1-7.12-7.1-1.05,0-2.13.23-3.17.75-23.13,11.33-31.91,50.82-54.74,61.75-1.02.49-2.08.71-3.1.71-3.74,0-7.11-2.99-7.11-7.1v-48.65c0-4.06-3.33-7.13-7.08-7.13-.83,0-1.69.16-2.54.48-28.12,10.91-38.76,58.56-68.54,64.68-3.33.69-5.77,3.57-5.77,6.97v52.79c0,4.05,3.32,7.11,7.09,7.11.74,0,1.49-.12,2.24-.36,26.66-8.86,37.63-51.78,63.64-63.16.95-.42,1.93-.61,2.88-.61,3.75,0,7.11,3,7.11,7.1v48.69c0,4.09,3.35,7.11,7.1,7.11.91,0,1.83-.17,2.74-.55,12.95-5.4,23.23-17.71,32.65-30.94,1.46-15.61,11.66-28.7,25.65-34.34h0Z"/>
        </g>
      </g>
    </g>
  </g>
</svg>