<?xml version="1.0" encoding="UTF-8"?>
<svg xmlns="http://www.w3.org/2000/svg" viewBox="0 0 5238.99 2263.04">
  <defs>
    <style>
      .cls-1 {
        fill: #232323;
      }

      .cls-2 {
        fill: none;
        stroke: #fff;
        stroke-miterlimit: 10;
        stroke-width: 5px;
      }
    </style>
  </defs>
  <g id="Layer_1" data-name="Layer 1">
    <rect class="cls-1" x="3478.22" width="1760.77" height="1760.77"/>
    <path class="cls-2" d="M1045.23,1506.51c-145.69-352.18-616.47-444.51-883.84-172.49-340.11,341.22-98.03,925.73,383.78,926.5,384.64,3.27,652.37-401.14,500.06-754.01Z"/>
  </g>
  <g id="Layer_2" data-name="Layer 2">
    <path class="cls-2" d="M371.83,1986.77c6.02-229.11,341.51-229.07,347.5,0-6.02,229.11-341.51,229.06-347.5,0Z"/>
  </g>
  <g id="Layer_3" data-name="Layer 3">
    <path class="cls-2" d="M818.57,2007.32c15.02-154.12-118.13-297.83-273-294.3-154.85-3.53-288.04,140.18-272.99,294.3-130.53-207.74,26.96-489.56,273-486.03,246-3.55,403.55,278.36,272.99,486.03Z"/>
  </g>
  <g id="Layer_4" data-name="Layer 4">
    <path class="cls-2" d="M964.73,1860.78c14.92-233.98-184.72-443.37-419.16-439.49-234.4-3.89-434.11,205.54-419.15,439.49-99.14-283.24,118.76-588.52,419.16-585.73,300.36-2.82,518.33,302.59,419.15,585.73Z"/>
  </g>
</svg>