<?xml version="1.0" encoding="UTF-8"?>
<svg id="Layer_2" data-name="Layer 2" xmlns="http://www.w3.org/2000/svg" viewBox="0 0 169.33 116.6">
  <defs>
    <style>
      .cls-1 {
        fill: #ef4523;
      }

      .cls-2 {
        fill: #194786;
      }
    </style>
  </defs>
  <g id="Layer_2-2" data-name="Layer 2">
    <g>
      <path class="cls-1" d="M146.61,113.86c-12.52,0-22.71-10.19-22.71-22.71s10.19-22.71,22.71-22.71,22.71,10.19,22.71,22.71-10.19,22.71-22.71,22.71Z"/>
      <path class="cls-2" d="M133.11,57.51c.89-.97,1.78-1.92,2.7-2.86,2.83-2.92,4.41-6.82,4.41-10.89V6.26c0-3.64-2.98-6.26-6.27-6.26-.92,0-1.88.2-2.79.66-20.38,9.98-28.11,44.77-48.22,54.39-.9.43-1.83.63-2.73.63-3.29,0-6.27-2.63-6.27-6.26V6.57c0-3.58-2.94-6.28-6.24-6.28-.74,0-1.49.14-2.24.43C40.68,10.33,31.31,52.3,5.08,57.69c-2.94.6-5.08,3.14-5.08,6.14v46.5c0,3.57,2.92,6.26,6.25,6.26.65,0,1.31-.11,1.98-.32,23.48-7.8,33.15-45.62,56.06-55.64.84-.37,1.7-.54,2.54-.54,3.3,0,6.27,2.64,6.27,6.26v42.89c0,3.6,2.95,6.26,6.25,6.26.8,0,1.61-.15,2.41-.49,11.41-4.76,20.46-15.6,28.76-27.26,1.28-13.75,10.27-25.29,22.6-30.25h0Z"/>
    </g>
  </g>
</svg>