<?xml version="1.0" encoding="UTF-8"?>
<svg id="Layer_1" data-name="Layer 1" xmlns="http://www.w3.org/2000/svg" viewBox="0 0 574.15 510.03">
  <defs>
    <style>
      .cls-1 {
        fill: none;
        stroke: #fff;
        stroke-miterlimit: 10;
      }
    </style>
  </defs>
  <path class="cls-1" d="M322.46,95.21c-10.59-13.09-22.44-25.14-35.38-35.9C242.96,22.61,186.3.5,124.57.5h-16.65L.54,255.02l107.37,254.52h16.65c61.73,0,118.39-22.11,162.51-58.8-12.95-10.77-24.79-22.81-35.38-35.91-30.91,24.64-69.08,40.55-110.75,43.87L55.01,255.02,140.94,51.34c41.68,3.32,79.84,19.23,110.75,43.87,13.22,10.54,25.12,22.66,35.38,36.11,26.22,34.36,41.82,77.23,41.82,123.69s-15.6,89.33-41.82,123.69c10.26,13.45,22.16,25.57,35.38,36.11,35.37-43.72,56.62-99.32,56.62-159.81s-21.25-116.09-56.62-159.81Z"/>
  <path class="cls-1" d="M466.24.5h-16.65c-61.74,0-118.39,22.11-162.51,58.8,12.95,10.77,24.79,22.81,35.38,35.9,30.91-24.64,69.08-40.55,110.75-43.87l85.93,203.68-85.93,203.68c-41.68-3.32-79.84-19.23-110.75-43.87-13.22-10.54-25.12-22.66-35.38-36.11-26.22-34.36-41.82-77.23-41.82-123.69s15.6-89.33,41.82-123.69c-10.26-13.45-22.16-25.57-35.38-36.11-35.37,43.72-56.62,99.32-56.62,159.81s21.25,116.09,56.62,159.81c10.59,13.09,22.44,25.14,35.38,35.91,44.12,36.69,100.78,58.8,162.51,58.8h16.65l107.37-254.52L466.24.5Z"/>
</svg>