<?xml version="1.0" encoding="UTF-8"?>
<svg id="JL" xmlns="http://www.w3.org/2000/svg" version="1.1" viewBox="0 0 612 612">
  <!-- Generator: Adobe Illustrator 29.3.1, SVG Export Plug-In . SVG Version: 2.1.0 Build 151)  -->
  <defs>
    <style>
      .st0 {
        fill: none;
        stroke: #fff;
        stroke-miterlimit: 10;
        stroke-width: 5px;
      }
    </style>
  </defs>
  <g>
    <path class="st0" d="M301,404.1c-11.4-18-19-38.1-22.6-58.9-12.2,46.6-54.5,80.9-104.9,80.9s-108.4-48.5-108.4-108.4,48.5-108.4,108.4-108.4,92.7,34.4,104.9,80.9c3.6-20.9,11.2-40.9,22.6-58.9l1.4-2.2c-28.2-40.9-75.4-67.8-128.9-67.8-86.4,0-156.4,70-156.4,156.4s70,156.4,156.4,156.4,100.7-26.8,128.9-67.8l-1.4-2.2Z"/>
    <path class="st0" d="M438.4,161.2c-53.5,0-100.7,26.8-128.9,67.8l1.4,2.2c11.4,18,19,38.1,22.6,58.9,12.2-46.6,54.5-80.9,104.9-80.9s108.4,48.5,108.4,108.4-48.5,108.4-108.4,108.4-92.7-34.4-104.9-80.9c-3.6,20.9-11.2,40.9-22.6,58.9l-1.4,2.2c28.2,40.9,75.4,67.8,128.9,67.8,86.4,0,156.4-70,156.4-156.4s-70-156.4-156.4-156.4Z"/>
  </g>
  <path class="st0" d="M282,317.6c0,30.6,8.8,59.2,24,83.3,15.2-24.1,24-52.7,24-83.3s-8.8-59.2-24-83.3c-15.2,24.1-24,52.7-24,83.3Z"/>
</svg>